<svg xmlns="http://www.w3.org/2000/svg" xmlns:xlink="http://www.w3.org/1999/xlink" width="500" zoomAndPan="magnify" viewBox="0 0 375 374.999991" height="500" preserveAspectRatio="xMidYMid meet" version="1.0"><defs><clipPath id="ff02b50c53"><path d="M 157.5 132.355469 L 217.5 132.355469 L 217.5 192.355469 L 157.5 192.355469 Z M 157.5 132.355469 " clip-rule="nonzero"/></clipPath><clipPath id="dd66bca770"><path d="M 187.5 132.355469 C 170.929688 132.355469 157.5 145.785156 157.5 162.355469 C 157.5 178.921875 170.929688 192.355469 187.5 192.355469 C 204.070312 192.355469 217.5 178.921875 217.5 162.355469 C 217.5 145.785156 204.070312 132.355469 187.5 132.355469 Z M 187.5 132.355469 " clip-rule="nonzero"/></clipPath><clipPath id="bb609b2770"><path d="M 0.5 0.355469 L 60.5 0.355469 L 60.5 60.355469 L 0.5 60.355469 Z M 0.5 0.355469 " clip-rule="nonzero"/></clipPath><clipPath id="1a43d36850"><path d="M 30.5 0.355469 C 13.929688 0.355469 0.5 13.785156 0.5 30.355469 C 0.5 46.921875 13.929688 60.355469 30.5 60.355469 C 47.070312 60.355469 60.5 46.921875 60.5 30.355469 C 60.5 13.785156 47.070312 0.355469 30.5 0.355469 Z M 30.5 0.355469 " clip-rule="nonzero"/></clipPath><clipPath id="9fa91516eb"><rect x="0" width="61" y="0" height="61"/></clipPath><clipPath id="87ea80cb39"><path d="M 141.796875 198.699219 L 233.292969 198.699219 L 233.292969 242.644531 L 141.796875 242.644531 Z M 141.796875 198.699219 " clip-rule="nonzero"/></clipPath><clipPath id="68bf8a5843"><path d="M 172.28125 201.339844 C 176.953125 199.746094 182.296875 198.699219 187.523438 198.699219 C 192.753906 198.699219 197.785156 199.597656 202.421875 201.191406 C 202.519531 201.242188 202.621094 201.242188 202.71875 201.289062 C 220.132812 207.664062 232.957031 224.496094 233.203125 242.644531 L 141.796875 242.644531 C 142.042969 224.398438 154.671875 207.566406 172.28125 201.339844 Z M 172.28125 201.339844 " clip-rule="nonzero"/></clipPath><clipPath id="47056e67d4"><path d="M 0.796875 0.699219 L 92.28125 0.699219 L 92.28125 44.644531 L 0.796875 44.644531 Z M 0.796875 0.699219 " clip-rule="nonzero"/></clipPath><clipPath id="b98a2ed90e"><path d="M 31.28125 3.339844 C 35.953125 1.746094 41.296875 0.699219 46.523438 0.699219 C 51.753906 0.699219 56.785156 1.597656 61.421875 3.191406 C 61.519531 3.242188 61.621094 3.242188 61.71875 3.289062 C 79.132812 9.664062 91.957031 26.496094 92.203125 44.644531 L 0.796875 44.644531 C 1.042969 26.398438 13.671875 9.566406 31.28125 3.339844 Z M 31.28125 3.339844 " clip-rule="nonzero"/></clipPath><clipPath id="55a2041555"><rect x="0" width="93" y="0" height="45"/></clipPath></defs><g clip-path="url(#ff02b50c53)"><g clip-path="url(#dd66bca770)"><g transform="matrix(1, 0, 0, 1, 157, 132)"><g clip-path="url(#9fa91516eb)"><g clip-path="url(#bb609b2770)"><g clip-path="url(#1a43d36850)"><path fill="#919191" d="M 0.5 0.355469 L 60.5 0.355469 L 60.5 60.355469 L 0.5 60.355469 Z M 0.5 0.355469 " fill-opacity="1" fill-rule="nonzero"/></g></g></g></g></g></g><g clip-path="url(#87ea80cb39)"><g clip-path="url(#68bf8a5843)"><g transform="matrix(1, 0, 0, 1, 141, 198)"><g clip-path="url(#55a2041555)"><g clip-path="url(#47056e67d4)"><g clip-path="url(#b98a2ed90e)"><path fill="#919191" d="M 0.796875 0.699219 L 92.121094 0.699219 L 92.121094 44.644531 L 0.796875 44.644531 Z M 0.796875 0.699219 " fill-opacity="1" fill-rule="nonzero"/></g></g></g></g></g></g></svg>